<svg xmlns="http://www.w3.org/2000/svg"  viewBox="0 0 100 100" width="100px" height="100px"><path fill="#c7ede6" d="M88.724,55.551c0.3-0.616,0.566-1.264,0.796-1.943c2.633-7.77-1.349-17.078-9.733-19.325C78.881,22.9,70.881,15.09,61.846,13.758c-10.341-1.525-19.814,5.044-22.966,15.485c-3.799-1.346-7.501-1.182-10.99,0.857c-1.583,0.732-3.031,1.812-4.33,3.233c-1.907,2.086-3.147,4.719-3.652,7.495c-0.748,0.118-1.483,0.236-2.176,0.484c-4.04,1.449-6.589,4.431-7.288,8.923c-0.435,2.797,0.443,5.587,0.933,6.714c1.935,4.455,6.422,6.98,10.981,6.312c0.227-0.033,0.557,0.069,0.752,0.233c0.241,7.12,3.698,13.417,8.884,17.014c8.321,5.772,19.027,3.994,25.781-3.921c2.894,2.96,6.338,4.398,10.384,3.876c4.023-0.519,7.147-2.739,9.426-6.349c1.053,0.283,2.051,0.691,3.083,0.804c4.042,0.442,7.324-1.165,9.732-4.8c0.922-1.391,1.794-3.194,1.793-6.354C92.194,60.508,90.901,57.54,88.724,55.551z"/><path fill="#fff" d="M18.389 47.587H8.358c-.276 0-.5-.224-.5-.5s.224-.5.5-.5h10.031c.276 0 .5.224.5.5S18.666 47.587 18.389 47.587zM21.27 47.587h-1.446c-.276 0-.5-.224-.5-.5s.224-.5.5-.5h1.446c.276 0 .5.224.5.5S21.546 47.587 21.27 47.587zM25.325 47.587h-2.546c-.276 0-.5-.224-.5-.5s.224-.5.5-.5h2.546c.276 0 .5.224.5.5S25.601 47.587 25.325 47.587zM25.325 49.452h-9.616c-.276 0-.5-.224-.5-.5s.224-.5.5-.5h9.616c.276 0 .5.224.5.5S25.601 49.452 25.325 49.452zM13.977 49.452h-.58c-.276 0-.5-.224-.5-.5s.224-.5.5-.5h.58c.276 0 .5.224.5.5S14.253 49.452 13.977 49.452zM11.6 49.452h-1.457c-.276 0-.5-.224-.5-.5s.224-.5.5-.5H11.6c.276 0 .5.224.5.5S11.876 49.452 11.6 49.452zM20.736 45.722h-5.027c-.276 0-.5-.224-.5-.5s.224-.5.5-.5h5.027c.276 0 .5.224.5.5S21.012 45.722 20.736 45.722zM20.736 43.857h-1.257c-.276 0-.5-.224-.5-.5s.224-.5.5-.5h1.257c.276 0 .5.224.5.5S21.012 43.857 20.736 43.857zM17.467 51.316h-1.759c-.276 0-.5-.224-.5-.5s.224-.5.5-.5h1.759c.276 0 .5.224.5.5S17.744 51.316 17.467 51.316zM74.415 25.266h-10.03c-.276 0-.5-.224-.5-.5s.224-.5.5-.5h10.03c.276 0 .5.224.5.5S74.691 25.266 74.415 25.266zM77.296 25.266h-1.446c-.276 0-.5-.224-.5-.5s.224-.5.5-.5h1.446c.276 0 .5.224.5.5S77.573 25.266 77.296 25.266zM81.351 25.266h-2.546c-.276 0-.5-.224-.5-.5s.224-.5.5-.5h2.546c.276 0 .5.224.5.5S81.627 25.266 81.351 25.266zM81.351 27.131h-9.616c-.276 0-.5-.224-.5-.5s.224-.5.5-.5h9.616c.276 0 .5.224.5.5S81.627 27.131 81.351 27.131zM70.003 27.131h-.58c-.276 0-.5-.224-.5-.5s.224-.5.5-.5h.58c.276 0 .5.224.5.5S70.279 27.131 70.003 27.131zM67.626 27.131H66.17c-.276 0-.5-.224-.5-.5s.224-.5.5-.5h1.456c.276 0 .5.224.5.5S67.902 27.131 67.626 27.131zM76.762 23.401h-5.027c-.276 0-.5-.224-.5-.5s.224-.5.5-.5h5.027c.276 0 .5.224.5.5S77.038 23.401 76.762 23.401zM76.762 21.537h-1.257c-.276 0-.5-.224-.5-.5s.224-.5.5-.5h1.257c.276 0 .5.224.5.5S77.038 21.537 76.762 21.537zM73.493 28.996h-1.759c-.276 0-.5-.224-.5-.5s.224-.5.5-.5h1.759c.276 0 .5.224.5.5S73.77 28.996 73.493 28.996z"/><path fill="#fdfcef" d="M74.986,48.42c0,0,10.616,0,10.681,0c2.452,0,4.439-1.987,4.439-4.439c0-2.139-1.513-3.924-3.527-4.344c0.023-0.187,0.039-0.377,0.039-0.57c0-2.539-2.058-4.598-4.597-4.598c-1.499,0-2.827,0.721-3.666,1.831c-0.215-2.826-2.739-5.007-5.693-4.646c-2.16,0.264-3.947,1.934-4.344,4.073c-0.127,0.686-0.114,1.352,0.013,1.977c-0.579-0.624-1.403-1.016-2.322-1.016c-1.68,0-3.052,1.308-3.16,2.961c-0.763-0.169-1.593-0.158-2.467,0.17c-1.671,0.627-2.861,2.2-2.93,3.983c-0.099,2.533,1.925,4.617,4.435,4.617c0.191,0,0.861,0,1.015,0h9.218"/><path fill="#472b29" d="M85.666,48.92H74.985c-0.276,0-0.5-0.224-0.5-0.5s0.224-0.5,0.5-0.5h10.681c2.172,0,3.939-1.767,3.939-3.938c0-1.855-1.316-3.477-3.129-3.855c-0.254-0.053-0.425-0.292-0.394-0.55c0.021-0.168,0.035-0.337,0.035-0.51c0-2.26-1.838-4.098-4.098-4.098c-1.292,0-2.483,0.595-3.267,1.633c-0.125,0.166-0.339,0.237-0.54,0.178c-0.199-0.059-0.342-0.234-0.357-0.441c-0.094-1.238-0.7-2.401-1.663-3.19c-0.973-0.797-2.207-1.151-3.471-0.997c-1.947,0.238-3.556,1.746-3.913,3.669c-0.112,0.6-0.108,1.201,0.011,1.786c0.044,0.22-0.062,0.442-0.262,0.545c-0.198,0.103-0.442,0.059-0.595-0.105c-0.512-0.553-1.206-0.856-1.955-0.856c-1.4,0-2.569,1.096-2.661,2.493c-0.01,0.146-0.082,0.28-0.199,0.368c-0.117,0.087-0.268,0.118-0.408,0.088c-0.756-0.167-1.47-0.117-2.183,0.149c-1.499,0.563-2.546,1.984-2.606,3.536c-0.042,1.083,0.347,2.108,1.096,2.888c0.75,0.779,1.758,1.209,2.839,1.209H72.12c0.276,0,0.5,0.224,0.5,0.5s-0.224,0.5-0.5,0.5H61.886c-1.356,0-2.62-0.538-3.56-1.516c-0.939-0.978-1.428-2.263-1.375-3.62c0.076-1.948,1.383-3.729,3.254-4.433c0.72-0.271,1.463-0.362,2.221-0.279c0.362-1.654,1.842-2.884,3.582-2.884c0.603,0,1.194,0.151,1.72,0.432c0.004-0.327,0.036-0.656,0.097-0.984c0.436-2.347,2.4-4.188,4.775-4.478c1.536-0.191,3.039,0.243,4.226,1.216c0.899,0.737,1.543,1.742,1.847,2.851c0.919-0.808,2.095-1.256,3.347-1.256c2.811,0,5.098,2.287,5.098,5.098c0,0.064-0.001,0.128-0.004,0.192c2.047,0.628,3.492,2.547,3.492,4.723C90.605,46.704,88.389,48.92,85.666,48.92z"/><path fill="#fdfcef" d="M72.413,38.641c-1.642-0.108-3.055,1.026-3.157,2.533c-0.013,0.187-0.004,0.371,0.023,0.55c-0.317-0.358-0.786-0.6-1.324-0.636c-0.985-0.065-1.836,0.586-1.959,1.471c-0.179-0.049-0.366-0.082-0.56-0.095c-1.437-0.094-2.674,0.898-2.762,2.216"/><path fill="#472b29" d="M62.675,44.931c-0.006,0-0.012,0-0.017-0.001c-0.138-0.009-0.242-0.128-0.233-0.266c0.098-1.453,1.446-2.569,3.028-2.449c0.117,0.007,0.235,0.022,0.353,0.044c0.26-0.877,1.163-1.501,2.166-1.42c0.376,0.024,0.73,0.138,1.035,0.329c0-0.004,0-0.008,0-0.011c0.11-1.642,1.663-2.896,3.422-2.766c0.138,0.009,0.242,0.128,0.233,0.266c-0.009,0.138-0.128,0.254-0.266,0.232c-1.521-0.089-2.8,0.935-2.891,2.301c-0.011,0.166-0.004,0.332,0.021,0.495c0.017,0.109-0.041,0.218-0.141,0.265c-0.098,0.047-0.22,0.022-0.293-0.061c-0.285-0.322-0.706-0.523-1.153-0.553c-0.848-0.041-1.59,0.497-1.696,1.256c-0.01,0.071-0.05,0.135-0.11,0.175S66,42.82,65.93,42.8c-0.17-0.046-0.341-0.075-0.51-0.087c-1.298-0.062-2.417,0.806-2.497,1.984C62.915,44.83,62.805,44.931,62.675,44.931z"/><path fill="#fdfcef" d="M87.464,40.157c-1.543-0.727-3.327-0.213-3.985,1.15c-0.082,0.169-0.142,0.344-0.182,0.521"/><path fill="#472b29" d="M83.296,42.078c-0.018,0-0.037-0.002-0.055-0.006c-0.135-0.031-0.219-0.165-0.188-0.3c0.044-0.197,0.112-0.39,0.201-0.573c0.716-1.483,2.654-2.052,4.317-1.269c0.125,0.06,0.179,0.208,0.12,0.333c-0.059,0.126-0.209,0.176-0.333,0.12c-1.417-0.669-3.056-0.205-3.654,1.032c-0.072,0.149-0.127,0.307-0.164,0.468C83.514,41.999,83.41,42.078,83.296,42.078z"/><path fill="#4985c1" d="M65.281,69.848H39.559c-3.766,0-6.847-3.081-6.847-6.847V37.279c0-3.766,3.081-6.847,6.847-6.847h25.722c3.766,0,6.847,3.081,6.847,6.847v25.722C72.128,66.767,69.047,69.848,65.281,69.848z"/><path fill="#472b29" d="M65.281,70.548H39.559c-4.162,0-7.547-3.386-7.547-7.548V37.279c0-4.162,3.386-7.548,7.547-7.548h25.722c4.162,0,7.547,3.386,7.547,7.548v25.722C72.828,67.163,69.442,70.548,65.281,70.548z M39.559,31.131c-3.39,0-6.147,2.758-6.147,6.147v25.722c0,3.39,2.757,6.147,6.147,6.147h25.722c3.39,0,6.147-2.758,6.147-6.147V37.279c0-3.39-2.757-6.147-6.147-6.147H39.559z"/><path fill="#fdfcee" d="M63.764,67.033H41.076c-3.052,0-5.549-2.497-5.549-5.549V38.796c0-3.052,2.497-5.549,5.549-5.549h22.688c3.052,0,5.549,2.497,5.549,5.549v22.688C69.313,64.536,66.816,67.033,63.764,67.033z"/><path fill="#472b29" d="M64.178,67.382H40.661c-3.024,0-5.484-2.46-5.484-5.483V38.382c0-3.024,2.46-5.484,5.484-5.484h22.395c0.193,0,0.35,0.156,0.35,0.35s-0.157,0.35-0.35,0.35H40.661c-2.638,0-4.784,2.146-4.784,4.785v23.518c0,2.638,2.146,4.784,4.784,4.784h23.517c2.638,0,4.784-2.146,4.784-4.784V48.888c0-0.193,0.157-0.35,0.35-0.35s0.35,0.156,0.35,0.35v13.011C69.663,64.923,67.202,67.382,64.178,67.382z"/><path fill="#472b29" d="M69.312 47.361c-.193 0-.35-.156-.35-.35v-2.502c0-.193.157-.35.35-.35s.35.156.35.35v2.502C69.663 47.205 69.506 47.361 69.312 47.361zM69.312 43.607c-.193 0-.35-.156-.35-.35v-1.251c0-.193.157-.35.35-.35s.35.156.35.35v1.251C69.663 43.451 69.506 43.607 69.312 43.607z"/><path fill="#4985c1" d="M49.57,44.441c0,0.544,0,2.763,0,2.763h-1.9v3.166h1.9v10.132h4.433V50.37h2.604c0,0,0.244-1.511,0.361-3.166c-0.34,0-3.599,0-3.599,0s0-1.992,0-2.343c0-0.35,0.459-0.824,0.913-0.824s1.978,0,2.886,0c0-0.499,0-2.212,0-3.799c-1.208,0-2.585,0-3.188,0C49.464,40.243,49.57,43.896,49.57,44.441z"/><path fill="#472b29" d="M54.003,60.851H49.57c-0.193,0-0.35-0.156-0.35-0.35v-9.782h-1.55c-0.193,0-0.35-0.156-0.35-0.35v-3.166c0-0.193,0.157-0.35,0.35-0.35h1.55V44.44h0.35l-0.35-0.035c-0.005-1.382,0.391-2.481,1.176-3.271c0.821-0.825,2.027-1.245,3.584-1.246h3.188c0.193,0,0.35,0.156,0.35,0.35v3.8c0,0.193-0.157,0.35-0.35,0.35h-2.886c-0.275,0-0.563,0.329-0.563,0.474v1.993h3.249c0.097,0,0.19,0.04,0.256,0.111c0.066,0.071,0.1,0.166,0.093,0.263c-0.117,1.652-0.362,3.182-0.365,3.197c-0.027,0.17-0.174,0.294-0.346,0.294h-2.254v9.782C54.353,60.695,54.196,60.851,54.003,60.851z M49.92,60.152h3.732V50.37c0-0.193,0.157-0.35,0.35-0.35h2.303c0.068-0.463,0.197-1.416,0.285-2.467H53.37c-0.193,0-0.35-0.156-0.35-0.35v-2.343c0-0.57,0.649-1.173,1.264-1.173h2.536v-3.101h-2.838c-1.364,0.002-2.403,0.352-3.088,1.04c-0.649,0.652-0.977,1.586-0.972,2.774v0.038v2.764c0,0.193-0.157,0.35-0.35,0.35h-1.55v2.467h1.55c0.193,0,0.35,0.156,0.35,0.35V60.152z"/><path fill="#fdfcef" d="M42.147,72.361c1.71,0,3.194,0,3.215,0c1.916,0,3.469-1.52,3.469-3.396c0-1.636-1.182-3.001-2.756-3.323c0.018-0.143,0.031-0.288,0.031-0.436c0-1.942-1.609-3.517-3.593-3.517c-1.172,0-2.209,0.551-2.865,1.401c-0.168-2.162-2.141-3.83-4.45-3.554c-1.688,0.202-3.084,1.479-3.395,3.116c-0.1,0.525-0.089,1.034,0.01,1.512c-0.453-0.477-1.097-0.777-1.814-0.777c-1.313,0-2.385,1.001-2.47,2.265c-0.596-0.129-1.245-0.121-1.928,0.13c-1.306,0.48-2.236,1.683-2.29,3.047c-0.077,1.937,1.504,3.532,3.467,3.532c0.149,0,0.673,0,0.794,0h7.204 M36.265,72.361h0.327"/><path fill="#472b29" d="M45.362,72.861h-3.215c-0.276,0-0.5-0.224-0.5-0.5s0.224-0.5,0.5-0.5h3.215c1.637,0,2.969-1.299,2.969-2.896c0-1.362-0.991-2.554-2.356-2.833c-0.256-0.053-0.429-0.293-0.396-0.553c0.016-0.123,0.026-0.247,0.026-0.374c0-1.663-1.388-3.017-3.093-3.017c-0.977,0-1.877,0.439-2.469,1.207c-0.127,0.164-0.342,0.23-0.539,0.174c-0.198-0.06-0.339-0.234-0.355-0.44c-0.071-0.913-0.507-1.741-1.227-2.333c-0.743-0.608-1.689-0.877-2.665-0.764c-1.476,0.177-2.694,1.292-2.963,2.712c-0.084,0.443-0.081,0.887,0.008,1.318c0.045,0.219-0.06,0.441-0.258,0.545c-0.198,0.103-0.44,0.063-0.595-0.1c-0.379-0.4-0.895-0.621-1.451-0.621c-1.038,0-1.903,0.79-1.971,1.798c-0.01,0.146-0.082,0.279-0.198,0.366c-0.116,0.087-0.265,0.122-0.406,0.089c-0.571-0.122-1.109-0.087-1.65,0.112c-1.128,0.414-1.917,1.458-1.963,2.598c-0.031,0.781,0.253,1.525,0.8,2.095c0.568,0.591,1.338,0.916,2.167,0.916h7.998c0.276,0,0.5,0.224,0.5,0.5s-0.224,0.5-0.5,0.5h-7.998c-1.088,0-2.141-0.446-2.888-1.224c-0.737-0.767-1.12-1.771-1.078-2.827c0.062-1.539,1.113-2.944,2.617-3.497c0.548-0.201,1.112-0.278,1.688-0.229c0.332-1.268,1.507-2.197,2.882-2.197c0.431,0,0.855,0.094,1.241,0.269c0.01-0.199,0.035-0.398,0.072-0.597c0.35-1.844,1.923-3.291,3.827-3.519c1.248-0.156,2.463,0.2,3.418,0.983c0.668,0.548,1.147,1.255,1.399,2.047c0.718-0.568,1.61-0.882,2.557-0.882c2.257,0,4.093,1.802,4.093,4.017c0,0.02,0,0.04,0,0.06c1.604,0.52,2.727,2.012,2.727,3.7C49.331,71.114,47.55,72.861,45.362,72.861z M36.592,72.861h-0.327c-0.276,0-0.5-0.224-0.5-0.5s0.224-0.5,0.5-0.5h0.327c0.276,0,0.5,0.224,0.5,0.5S36.868,72.861,36.592,72.861z"/><path fill="#472b29" d="M43.811 67.568c-.018 0-.036-.002-.055-.006-.135-.03-.219-.164-.189-.299.034-.15.086-.299.156-.439.554-1.123 2.083-1.539 3.41-.925.125.058.18.206.122.331-.058.126-.207.179-.332.122-1.081-.497-2.316-.188-2.752.692-.052.105-.091.216-.116.328C44.029 67.489 43.926 67.568 43.811 67.568zM39.126 72.861h-1.005c-.276 0-.5-.224-.5-.5s.224-.5.5-.5h1.005c.276 0 .5.224.5.5S39.403 72.861 39.126 72.861z"/></svg>